<svg width="16" height="12" viewBox="0 0 16 12" fill="none" xmlns="http://www.w3.org/2000/svg">
<path d="M2 0C1.46957 0 0.960859 0.210714 0.585786 0.585786C0.210714 0.960859 0 1.46957 0 2L0 10C0 10.5304 0.210714 11.0391 0.585786 11.4142C0.960859 11.7893 1.46957 12 2 12H14C14.5304 12 15.0391 11.7893 15.4142 11.4142C15.7893 11.0391 16 10.5304 16 10V2C16 1.46957 15.7893 0.960859 15.4142 0.585786C15.0391 0.210714 14.5304 0 14 0H2ZM5.027 4.002C4.197 4.002 3.708 4.644 3.708 5.755V6.498C3.708 7.605 4.188 8.225 5.027 8.225C5.717 8.225 6.165 7.79 6.213 7.175H7.36V7.289C7.303 8.436 6.332 9.227 5.018 9.227C3.405 9.227 2.5 8.199 2.5 6.498V5.751C2.5 4.051 3.414 3 5.018 3C6.336 3 7.308 3.813 7.36 5V5.11H6.213C6.165 4.472 5.708 4.002 5.027 4.002V4.002ZM11.167 4.002C10.336 4.002 9.848 4.644 9.848 5.755V6.498C9.848 7.605 10.328 8.225 11.166 8.225C11.856 8.225 12.305 7.79 12.353 7.175H13.5V7.289C13.443 8.436 12.472 9.227 11.158 9.227C9.545 9.227 8.64 8.199 8.64 6.498V5.751C8.64 4.051 9.554 3 11.158 3C12.476 3 13.448 3.813 13.5 5V5.11H12.353C12.305 4.472 11.848 4.002 11.166 4.002H11.167Z" fill="#888888"/>
</svg>
