<svg width="17" height="16" viewBox="0 0 17 16" fill="none" xmlns="http://www.w3.org/2000/svg">
<path d="M2.00299 3.002C2.003 2.8186 2.05344 2.63874 2.1488 2.48208C2.24415 2.32543 2.38075 2.19801 2.54366 2.11377C2.70656 2.02953 2.8895 1.99171 3.07245 2.00445C3.25541 2.01719 3.43133 2.08 3.58099 2.186L10.581 7.149C10.711 7.24095 10.8172 7.36262 10.8907 7.50389C10.9642 7.64516 11.0029 7.80195 11.0036 7.9612C11.0043 8.12045 10.967 8.27756 10.8947 8.41946C10.8224 8.56136 10.7172 8.68394 10.588 8.777L3.58799 13.814C3.43866 13.9217 3.26248 13.9861 3.07889 14.0001C2.89529 14.0141 2.7114 13.9771 2.54748 13.8932C2.38357 13.8093 2.24599 13.6818 2.14991 13.5248C2.05384 13.3677 2.003 13.1871 2.00299 13.003V3.002ZM14.003 2.5C14.003 2.36739 13.9503 2.24021 13.8565 2.14645C13.7628 2.05268 13.6356 2 13.503 2C13.3704 2 13.2432 2.05268 13.1494 2.14645C13.0557 2.24021 13.003 2.36739 13.003 2.5V13.5C13.003 13.6326 13.0557 13.7598 13.1494 13.8536C13.2432 13.9473 13.3704 14 13.503 14C13.6356 14 13.7628 13.9473 13.8565 13.8536C13.9503 13.7598 14.003 13.6326 14.003 13.5V2.5Z" fill="#888888"/>
</svg>
