<svg width="31" height="31" viewBox="0 0 31 31" fill="none" xmlns="http://www.w3.org/2000/svg">
<path d="M27.0705 5.21914C24.2369 2.02227 20.1137 0 15.5 0C6.93867 0 0 6.93867 0 15.5H3.875C3.875 9.07598 9.07598 3.875 15.5 3.875C19.042 3.875 22.1844 5.47949 24.3096 7.98008L20.6646 11.625H31V1.28965L27.0705 5.21914ZM15.5 27.125C11.958 27.125 8.81562 25.5205 6.69043 23.0199L10.3354 19.375H0V29.7104L3.92949 25.7809C6.76309 28.9777 10.8924 31 15.5 31C24.0613 31 31 24.0613 31 15.5H27.125C27.125 21.924 21.924 27.125 15.5 27.125V27.125Z" fill="#888888"/>
</svg>
